<?xml version="1.0" encoding="utf-8"?>
<svg xmlns="http://www.w3.org/2000/svg" xml:space="preserve" width="20"
height="20" fill-rule="evenodd" clip-rule="evenodd" image-rendering="optimizeQuality"
shape-rendering="geometricPrecision" text-rendering="geometricPrecision"> <path
    d="M9 0v1h-.5v2H8V2H7v-.5h-.5V1H6V.5H3.5V1H3v.5h-.5V2H2v.5h-.5V3H1v1H0v2.5h.5V7h1v-.5H2V6h1v-.5h-.5V5H2V4h-.5v-.5H2V3h.5v-.5H3V2h1v-.5h.5V1H5v1h1v.5h1.5v1H8V4h1v.5h1V5h1.5v1H11v1h-1v1h.5v1h.5v.5h-.5v.5H10V8.5h-.5V8H9v-.5H8V7h-.5v-.5H6V7h-.5v.5h-1v1h-1V10H3v3.5h.5v2h1v1H5v.5h.5v.5H6v.5h.5v.5H7v.5h1v.5h2.5v.5h3v-.5H15V19h.5v-.5h.5V18h.5v-.5h.5V17h-1v.5h-.5v-1H15v.5h-.5v.5H14v1h-.5v.5H13v.5h-2V19h-.5v-2h.5v-.5h1V16h1v-.5h1.5V15h.5v-.5h.5V14h.5v-.5h.5V12h.5v-.5h.5V9H17v-.5h-.5V8H16v-.5h-3.5V8H12v.5h-1v-1h.5v-1h.5v-1h1V6h.5v.5h2V6h.5v-.5h1V5h1V4h.5v-.5h.5V3h.5v-.5h.5V2h-.5v-.5H19V1h-.5V.5H18V0h-.5v.5H17V1h-1v.5h-.5V2h.5v.5h.5V3h1v.5H17V4h.5v.5h-1V5h-1v.5H14V5h-2V4h.5V2.5H12V1h-1V0H9.5zm6.5 16.5h.5V16h-.5ZM10 .5h.5v1h.5V2h.5v.5H11v1h.5v1h-1V4H10v-.5h-.5V3H9V2h.5V1h.5Z">
</path> </svg>
