<?xml version="1.0" encoding="UTF-8" standalone="no"?>
<svg
   version="1.1"
   width="20"
   height="20"
   style="clip-rule:evenodd;fill-rule:evenodd;image-rendering:optimizeQuality;shape-rendering:geometricPrecision;text-rendering:geometricPrecision"
   id="svg2748"
   sodipodi:docname="8bit-fleuron.svg"
   xml:space="preserve"
   inkscape:export-filename="8bit-fleuron.svg"
   inkscape:export-xdpi="96"
   inkscape:export-ydpi="96"
   xmlns:inkscape="http://www.inkscape.org/namespaces/inkscape"
   xmlns:sodipodi="http://sodipodi.sourceforge.net/DTD/sodipodi-0.dtd"
   xmlns="http://www.w3.org/2000/svg"
   xmlns:svg="http://www.w3.org/2000/svg"><defs
     id="defs2752" /><sodipodi:namedview
     id="namedview2750"
     pagecolor="#ffffff"
     bordercolor="#000000"
     borderopacity="0.25"
     inkscape:showpageshadow="false"
     inkscape:pageopacity="0"
     inkscape:pagecheckerboard="0"
     inkscape:deskcolor="#d1d1d1"
     showgrid="true"><inkscape:grid
       type="xygrid"
       id="grid3041"
       empspacing="1"
       originx="0"
       originy="0"
       spacingx="0.5"
       spacingy="0.5" /></sodipodi:namedview><g
     inkscape:groupmode="layer"
     id="layer3"
     inkscape:label="Layer 3"><path
       id="rect3634"
       d="M 9,0 V 1 H 8.5 V 3 H 8 V 2.5 2 H 7 V 1.5 H 6.5 V 1 H 6 V 0.5 H 3.5 V 1 H 3 V 1.5 H 2.5 V 2 H 2 V 2.5 H 1.5 V 3 H 1 V 4 H 0 V 6.5 H 0.5 V 7 h 1 V 6.5 H 2 V 6 H 2.5 3 V 5.5 H 2.5 V 5 H 2 V 4 H 1.5 V 3.5 H 2 V 3 H 2.5 V 2.5 H 3 V 2 H 4 V 1.5 H 4.5 V 1 H 5 V 1.5 2 H 6 V 2.5 H 7.5 V 3 3.5 H 8 V 4 h 1 v 0.5 h 1 V 5 h 1.5 V 6 H 11 V 7 H 10.5 10 v 1 h 0.5 V 8.5 9 H 11 V 9.5 H 10.5 V 10 H 10 V 8.5 H 9.5 V 8 H 9 V 7.5 H 8 V 7 H 7.5 V 6.5 H 6 V 7 H 5.5 v 0.5 h -1 v 1 h -1 V 10 H 3 v 3.5 h 0.5 v 1 0.5 0.5 h 1 v 1 H 5 V 17 h 0.5 v 0.5 H 6 V 18 h 0.5 v 0.5 H 7 V 19 h 1 v 0.5 h 2.5 V 20 h 3 V 19.5 H 15 V 19 h 0.5 V 18.5 H 16 V 18 h 0.5 V 17.5 H 17 V 17 H 16.5 16 v 0.5 H 15.5 V 17 16.5 H 15 V 17 h -0.5 v 0.5 H 14 v 1 H 13.5 V 19 H 13 v 0.5 H 11 V 19 H 10.5 V 18 17.5 17 H 11 v -0.5 h 1 V 16 h 1 v -0.5 h 1.5 V 15 H 15 v -0.5 h 0.5 V 14 H 16 v -0.5 h 0.5 V 12 H 17 v -0.5 h 0.5 V 9 H 17 V 8.5 H 16.5 V 8 H 16 V 7.5 H 15 12.5 V 8 H 12 V 8.5 H 11.5 11 v -1 h 0.5 v -1 H 12 V 6 5.5 h 1 V 6 h 0.5 v 0.5 h 2 V 6 H 16 V 5.5 h 1 V 5 H 17.5 18 V 4.5 4 h 0.5 V 3.5 H 19 V 3 h 0.5 V 2.5 H 20 V 2 H 19.5 V 1.5 H 19 V 1 H 18.5 V 0.5 H 18 V 0 H 17.5 V 0.5 H 17 V 1 H 16.5 16 V 1.5 H 15.5 V 2 H 16 v 0.5 h 0.5 V 3 h 1 V 3.5 H 17 V 4 h 0.5 v 0.5 h -1 V 5 h -1 V 5.5 H 14 V 5 H 12 V 4 h 0.5 V 2.5 H 12 V 2 1.5 1 H 11 V 0 h -0.5 -1 z m 6.5,16.5 H 16 V 16 H 15.5 Z M 10,0.5 h 0.5 V 1 1.5 H 11 V 2 h 0.5 V 2.5 H 11 v 1 h 0.5 v 1 h -1 V 4 H 10 V 3.5 H 9.5 V 3 H 9 V 2 H 9.5 V 1 H 10 Z" /></g></svg>
